<svg width="20" height="15" viewBox="0 0 20 15" fill="none" xmlns="http://www.w3.org/2000/svg">
<path opacity="0.4" d="M19.3311 2.44251C18.912 2.17855 18.397 2.1552 17.958 2.37855L16.476 3.12677C15.928 3.40291 15.588 3.96129 15.588 4.58261V10.4161C15.588 11.0374 15.928 11.5948 16.476 11.873L17.957 12.6202C18.158 12.7237 18.373 12.7735 18.588 12.7735C18.846 12.7735 19.102 12.7004 19.3311 12.5572C19.7501 12.2943 20.0001 11.8384 20.0001 11.339V3.66179C20.0001 3.1623 19.7501 2.70646 19.3311 2.44251Z" fill="#006AFF"/>
<path d="M9.9051 15H4.11304C1.69102 15 0 13.3299 0 10.9391V4.06091C0 1.66904 1.69102 0 4.11304 0H9.9051C12.3271 0 14.0181 1.66904 14.0181 4.06091V10.9391C14.0181 13.3299 12.3271 15 9.9051 15Z" fill="#006AFF"/>
</svg>
