<svg width="18" height="18" viewBox="0 0 18 18" fill="none" xmlns="http://www.w3.org/2000/svg">
<g id="Iconly/Bulk/Delete">
<g id="Delete">
<path id="Fill 1" opacity="0.4" d="M14.7322 7.11632C14.7322 7.16732 14.3325 12.2229 14.1042 14.3506C13.9612 15.6563 13.1195 16.4482 11.8569 16.4707C10.8868 16.4925 9.93706 16.5 9.00268 16.5C8.01068 16.5 7.04056 16.4925 6.09888 16.4707C4.87857 16.4415 4.0361 15.6338 3.90043 14.3506C3.66556 12.2154 3.27313 7.16732 3.26584 7.11632C3.25855 6.96257 3.30815 6.81633 3.4088 6.69783C3.50801 6.58834 3.65097 6.52234 3.80123 6.52234H14.2041C14.3537 6.52234 14.4893 6.58834 14.5966 6.69783C14.6965 6.81633 14.7468 6.96257 14.7322 7.11632Z" fill="#006AFF"/>
<path id="Fill 4" d="M15.75 4.48265C15.75 4.17441 15.5071 3.93291 15.2153 3.93291H13.0286C12.5836 3.93291 12.197 3.61643 12.0978 3.17019L11.9753 2.62346C11.8039 1.96273 11.2123 1.5 10.5485 1.5H7.45218C6.78112 1.5 6.1954 1.96273 6.01743 2.65946L5.90291 3.17094C5.80298 3.61643 5.41639 3.93291 4.97217 3.93291H2.78539C2.49289 3.93291 2.25 4.17441 2.25 4.48265V4.76764C2.25 5.06837 2.49289 5.31737 2.78539 5.31737H15.2153C15.5071 5.31737 15.75 5.06837 15.75 4.76764V4.48265Z" fill="#006AFF"/>
</g>
</g>
</svg>
