<svg width="18" height="18" viewBox="0 0 18 18" fill="none" xmlns="http://www.w3.org/2000/svg">
<g id="Iconly/Bulk/Edit">
<g id="Edit">
<path id="Fill 1" opacity="0.4" d="M14.9945 14.215H10.7238C10.3072 14.215 9.96826 14.5592 9.96826 14.9825C9.96826 15.4066 10.3072 15.75 10.7238 15.75H14.9945C15.4112 15.75 15.7501 15.4066 15.7501 14.9825C15.7501 14.5592 15.4112 14.215 14.9945 14.215Z" fill="#006AFF"/>
<path id="Fill 3" d="M7.73177 5.17795L11.7787 8.44802C11.8763 8.52622 11.893 8.66973 11.8168 8.7697L7.01906 15.0212C6.71746 15.4074 6.27301 15.6259 5.79681 15.6339L3.17772 15.6662C3.03804 15.6678 2.91581 15.5711 2.88406 15.4324L2.28882 12.8444C2.18564 12.3687 2.28882 11.8769 2.59041 11.498L7.41192 5.21665C7.4897 5.11587 7.63335 5.09813 7.73177 5.17795Z" fill="#006AFF"/>
<path id="Fill 5" opacity="0.4" d="M13.5905 6.49908L12.8103 7.473C12.7317 7.57217 12.5904 7.58829 12.4928 7.50928C11.5444 6.74175 9.11578 4.77213 8.44196 4.22632C8.34355 4.14569 8.33006 4.00219 8.40942 3.90221L9.16182 2.96779C9.84437 2.089 11.0349 2.00838 11.9952 2.7743L13.0984 3.65309C13.5508 4.00783 13.8524 4.47544 13.9556 4.96724C14.0746 5.50822 13.9476 6.03953 13.5905 6.49908Z" fill="#006AFF"/>
</g>
</g>
</svg>
