<svg width="526" height="149" viewBox="0 0 526 149" fill="none" xmlns="http://www.w3.org/2000/svg">
    <path d="M71.2198 90.8082C74.744 90.8082 77.7421 89.5981 80.0565 87.2305C82.3709 84.9155 83.5281 82.0218 83.5281 78.4441C83.5281 68.395 79.5831 59.4508 71.588 51.5588C63.6455 43.6668 53.9671 39.7734 42.5004 39.7734C30.9811 39.7734 21.0924 43.8773 12.6239 52.1375C4.20796 60.4504 0 70.5521 0 82.3901C0 94.2281 4.20796 104.225 12.5713 112.537C20.9346 120.903 30.8759 125.059 42.553 125.059C54.2301 125.059 63.3825 123.06 70.0626 119.061C73.7972 116.536 75.6382 113.642 75.6382 110.433C75.6382 104.014 71.2724 100.436 66.065 100.436C63.3825 100.436 60.6473 101.383 57.7543 103.278C54.8613 105.224 50.5482 106.171 44.7096 106.171C38.9237 106.171 33.9793 104.645 29.7713 101.699C25.5108 98.7528 22.9334 95.1751 21.9866 90.8082H71.2198ZM56.7023 63.1337C60.6473 66.4483 62.9617 70.0786 63.6455 74.1824H21.9866C22.8808 69.9734 25.2478 66.2905 29.1928 63.0811C33.1903 59.9243 37.7665 58.3459 42.9738 58.3459C48.1812 58.3459 52.7574 59.9243 56.7023 63.1337Z" fill="#111111"/>
    <path d="M150.806 99.1759C146.493 103.753 141.075 106.016 134.448 106.016C127.873 106.016 122.297 103.648 117.879 98.9654C113.46 94.1776 111.199 88.6532 111.199 82.2344C111.199 75.8156 113.46 70.2912 117.984 65.7139C122.455 61.1365 128.03 58.8216 134.553 58.8216C141.075 58.8216 146.493 60.9787 150.806 65.3982C155.067 69.8177 157.171 75.3421 157.171 82.1818C157.171 89.0215 155.067 94.5985 150.806 99.1759ZM176.79 10.5226C176.79 7.73414 175.738 5.26132 173.634 3.15679C171.53 1.05226 169.058 0 166.218 0C163.43 0 160.958 1.05226 158.854 3.15679C156.75 5.26132 155.698 7.73414 155.698 10.5226V48.2989C149.701 42.4589 142.18 39.6177 133.396 39.6177C121.876 39.6177 111.935 43.669 103.677 51.9818C95.2608 60.2947 91.1055 70.3965 91.1055 82.2344C91.1055 94.125 95.2082 104.227 103.309 112.54C111.409 120.905 121.245 125.062 132.764 125.062C141.548 125.167 149.438 122.168 156.329 116.223C156.329 118.327 157.328 120.326 159.222 122.168C161.168 124.115 163.482 125.062 166.323 125.062C169.111 125.062 171.53 124.009 173.634 121.957C175.738 119.853 176.79 117.327 176.79 114.539V10.5226Z" fill="#111111"/>
    <path d="M213.956 49.715C213.956 46.9265 212.904 44.4011 210.8 42.3492C208.696 40.2446 206.224 39.1924 203.436 39.1924C200.595 39.1924 198.123 40.2446 196.019 42.3492C193.915 44.4011 192.863 46.9265 192.863 49.715V82.0721C192.863 93.9101 197.176 103.907 205.592 112.219C214.061 120.532 224.37 124.689 236.311 124.689C248.303 124.689 258.508 120.585 266.976 112.325C275.339 104.117 279.547 94.0679 279.547 82.0721V49.715C279.547 46.8213 278.495 44.3485 276.391 42.2439C274.287 40.2446 271.815 39.1924 268.975 39.1924C266.187 39.1924 263.715 40.2446 261.611 42.3492C259.507 44.4011 258.455 46.9265 258.455 49.715V82.0721C258.455 88.5962 256.351 94.0679 252.09 98.6453C247.83 103.223 242.623 105.485 236.258 105.485C229.893 105.485 224.581 103.223 220.32 98.6453C216.06 94.0679 213.956 88.5962 213.956 82.0721V49.715Z" fill="#111111"/>
    <path fill-rule="evenodd" clip-rule="evenodd" d="M359.04 15.7832H459.4C496.01 15.7832 525.992 45.7201 525.992 82.3915C525.992 119.01 496.01 149 459.4 149H359.04C322.431 149 292.449 119.01 292.449 82.3915C292.449 45.7201 322.431 15.7832 359.04 15.7832ZM390.97 52.035C382.607 43.7221 372.245 39.6709 360.252 39.6709C348.207 39.6709 337.95 43.7221 329.534 51.9298C321.066 60.2427 316.91 70.2918 316.91 82.235C316.91 94.1782 321.066 104.28 329.481 112.593C337.792 120.958 348.049 125.115 360.147 125.115C372.245 125.115 382.607 120.958 390.97 112.488C399.386 104.122 403.594 94.0203 403.594 82.235C403.594 70.4496 399.386 60.3479 390.97 52.035ZM376.768 99.0186C372.35 103.701 366.775 106.069 360.252 106.069C353.73 106.069 348.154 103.701 343.736 99.0186C339.265 94.2308 337.003 88.7064 337.003 82.2876C337.003 75.8688 339.265 70.3444 343.789 65.7671C348.312 61.1897 353.782 58.8747 360.305 58.8747C366.88 58.8747 372.35 61.1897 376.768 65.7671C381.239 70.3444 383.449 75.8688 383.449 82.2876C383.449 88.7064 381.239 94.2308 376.768 99.0186ZM479.811 114.645C479.811 117.433 480.81 119.906 482.967 122.011C485.018 124.115 487.543 125.167 490.331 125.167C493.119 125.167 495.643 124.115 497.747 122.011C499.851 119.906 500.903 117.433 500.903 114.645V82.235C500.903 70.4496 496.59 60.3479 488.174 52.035C479.706 43.7221 469.396 39.6709 457.456 39.6709C445.463 39.6709 435.207 43.7221 426.843 51.9298C418.427 60.2427 414.219 70.2918 414.219 82.235V114.645C414.219 117.538 415.271 119.959 417.375 122.011C419.479 124.115 421.951 125.167 424.792 125.167C427.58 125.167 430.052 124.115 432.156 122.011C434.26 119.906 435.312 117.433 435.312 114.645V82.235C435.312 75.7636 437.416 70.2918 441.676 65.7144C445.937 61.1371 451.249 58.8747 457.561 58.8747C463.926 58.8747 469.186 61.1371 473.446 65.7144C477.707 70.2918 479.811 75.7636 479.811 82.235V114.645Z" fill="#006AFF"/>
</svg>
