<?xml version="1.0"?>
<svg xmlns="http://www.w3.org/2000/svg" xmlns:xlink="http://www.w3.org/1999/xlink" version="1.1" width="512" height="512" x="0" y="0" viewBox="0 0 561 561" style="enable-background:new 0 0 512 512" xml:space="preserve" class=""><g>
<g xmlns="http://www.w3.org/2000/svg">
	<g id="visibility">
		<path d="M280.5,89.25C153,89.25,43.35,168.3,0,280.5c43.35,112.2,153,191.25,280.5,191.25S517.65,392.7,561,280.5    C517.65,168.3,408,89.25,280.5,89.25z M280.5,408C209.1,408,153,351.9,153,280.5c0-71.4,56.1-127.5,127.5-127.5    c71.4,0,127.5,56.1,127.5,127.5C408,351.9,351.9,408,280.5,408z M280.5,204c-43.35,0-76.5,33.15-76.5,76.5    c0,43.35,33.15,76.5,76.5,76.5c43.35,0,76.5-33.15,76.5-76.5C357,237.15,323.85,204,280.5,204z" fill="#1111118a"  style="" class=""/>
	</g>
</g>
<g xmlns="http://www.w3.org/2000/svg">
</g>
<g xmlns="http://www.w3.org/2000/svg">
</g>
<g xmlns="http://www.w3.org/2000/svg">
</g>
<g xmlns="http://www.w3.org/2000/svg">
</g>
<g xmlns="http://www.w3.org/2000/svg">
</g>
<g xmlns="http://www.w3.org/2000/svg">
</g>
<g xmlns="http://www.w3.org/2000/svg">
</g>
<g xmlns="http://www.w3.org/2000/svg">
</g>
<g xmlns="http://www.w3.org/2000/svg">
</g>
<g xmlns="http://www.w3.org/2000/svg">
</g>
<g xmlns="http://www.w3.org/2000/svg">
</g>
<g xmlns="http://www.w3.org/2000/svg">
</g>
<g xmlns="http://www.w3.org/2000/svg">
</g>
<g xmlns="http://www.w3.org/2000/svg">
</g>
<g xmlns="http://www.w3.org/2000/svg">
</g>
</g></svg>
